<svg class="thumb" width="1000" height="1000" viewBox="0,0,600,600" xmlns="http://www.w3.org/2000/svg" xmlns:inkscape="http://www.inkscape.org/namespaces/inkscape" xmlns:sodipodi="http://sodipodi.sourceforge.net/DTD/sodipodi-0.dtd" xmlns:xlink="http://www.w3.org/1999/xlink" xmlns:ns1="http://www.inkscape.org/namespaces/inkscape" xmlns:sketch="http://www.bohemiancoding.com/sketch/ns">
  <defs></defs>
  <g transform="matrix(0.9855,0,0,0.9855,-61.382,54.8483)">
    <g transform="matrix(4.1445,0,0,4.1445,213.8452,29.8473)">
      <svg width="99.95849737764136" height="99.99799999999999" viewBox="-0.00007253143372842885,0.03000000000000025,99.95849737764136,99.99799999999999">
        <defs>
          <linearGradient x1="0" y1="0.5" x2="1" y2="0.5" id="linearGradientSk72voaor4">
            <stop offset="0%" stop-color="#4c96d7" stop-opacity="0.7"></stop>
            <stop offset="100%" stop-color="#e63b3e" stop-opacity="0.67"></stop>
          </linearGradient>
        </defs>
        <g></g>
        <g></g>
        <g></g>
        <g></g>
        <g></g>
        <g></g>
        <g></g>
        <g></g>
        <g>
          <path d="M74.75,12.466C67.372,7.601,58.82,5.03,50.018,5.03c-15.192,0-29.249,7.562-37.6,20.227  C-1.239,45.969,4.499,73.933,25.21,87.591c7.377,4.864,15.928,7.437,24.728,7.437c15.193,0,29.251-7.564,37.603-20.232  C101.197,54.087,95.459,26.126,74.75,12.466z M88.813,44.416c-1.983-3.379-4.636-6.821-7.877-10.177  c0.014-0.131,0.035-0.265,0.049-0.397c0.3-2.854,0.287-5.497-0.014-7.903C85.182,31.366,87.846,37.757,88.813,44.416z M72.42,51.019  c-3.866-3.781-8.486-7.557-13.707-11.111l8.435-12.791c3.779,2.615,7.193,5.463,10.147,8.398  C76.532,40.467,74.866,45.74,72.42,51.019z M60.356,69.541c-4.062-3.714-8.9-7.473-13.989-10.911L56.82,42.778  c5.521,3.763,10.211,7.69,13.99,11.504c-1.205,2.296-2.55,4.578-4.03,6.823C64.775,64.146,62.61,66.962,60.356,69.541z   M33.02,85.431c-1.086-0.521-2.145-1.106-3.186-1.729l14.634-22.193c5.413,3.658,9.946,7.26,13.557,10.57  c-7.993,8.301-16.864,13.409-24.094,13.409C33.618,85.488,33.323,85.45,33.02,85.431z M26.549,51.366  c4.74,2.127,9.879,4.94,15.048,8.251L26.953,81.824c-0.989-0.717-1.934-1.473-2.837-2.266  C20.924,73.224,21.884,62.577,26.549,51.366z M31.281,15.494c2.308-0.363,4.975-0.37,7.949,0.001c3.014,0.377,6.186,1.13,9.429,2.21  c-4.059,2.83-8.083,6.475-11.831,10.774c-2.609-0.942-5.151-1.714-7.568-2.252c-3.734-0.831-7.028-1.105-9.814-0.855  C22.739,21.285,26.762,17.939,31.281,15.494z M66.938,14.625c1.088,0.522,2.146,1.107,3.188,1.731l-3.953,5.996  c-3.219-2.034-6.503-3.806-9.778-5.29c3.371-1.606,6.645-2.494,9.633-2.494C66.34,14.568,66.635,14.605,66.938,14.625z   M64.269,25.239l-8.433,12.787c-5.214-3.326-10.507-6.113-15.601-8.226c3.957-4.408,8.178-8.029,12.35-10.635  C56.476,20.755,60.412,22.808,64.269,25.239z M16.551,29.455c2.708-1.035,6.842-1.012,11.96,0.127  c1.917,0.427,3.92,1.007,5.974,1.707c-1.45,1.83-2.85,3.752-4.177,5.765c-2.149,3.261-4.005,6.551-5.564,9.811  c-1.195-0.477-2.371-0.924-3.495-1.301c-4.147-1.39-7.485-1.992-10.012-1.822C12.03,38.805,13.783,33.951,16.551,29.455z   M33.178,38.948c1.491-2.261,3.075-4.39,4.712-6.402c5.199,2.07,10.662,4.916,16.053,8.352L43.49,56.748  c-5.32-3.41-10.626-6.316-15.542-8.521C29.42,45.124,31.162,42.004,33.178,38.948z M69.042,24.247l3.964-6.013  c1.01,0.731,1.973,1.505,2.895,2.313c1.382,2.739,2.011,6.324,1.831,10.577C75.119,28.74,72.209,26.429,69.042,24.247z   M59.948,12.068c-2.48,0.715-5.042,1.823-7.625,3.298c-4.293-1.633-8.518-2.745-12.501-3.259c3.283-0.877,6.703-1.346,10.196-1.346  C53.396,10.761,56.725,11.221,59.948,12.068z M10.832,47.25c1.605-0.268,4.513-0.037,9.324,1.575  c1.024,0.344,2.091,0.746,3.178,1.177c-3.741,8.842-5.241,17.292-4.385,24.068C13.013,66.394,10.172,56.795,10.832,47.25z   M40.008,87.989c6.654-1.919,13.892-6.733,20.489-13.553c4.421,4.406,7.014,8.095,7.658,10.394  c-5.531,2.889-11.753,4.467-18.217,4.467C46.561,89.297,43.232,88.838,40.008,87.989z M71.114,83.113  c-1.213-3.269-4.204-7.163-8.278-11.208c2.402-2.725,4.699-5.7,6.814-8.905c1.321-2.004,2.534-4.039,3.646-6.086  c5.519,6.157,8.536,11.83,8.725,15.774C79.046,76.896,75.334,80.416,71.114,83.113z M84.636,68.471  c-1.453-4.475-4.795-9.607-9.655-14.829c2.449-5.058,4.227-10.146,5.241-15.016c4.6,5.221,7.702,10.55,8.822,15.205  C88.564,58.843,87.116,63.819,84.636,68.471z" fill="url('#linearGradientSk72voaor4')" stroke="none" style=""></path>
        </g>
      </svg>
    </g>
    <g transform="matrix(3.3887,0,0,3.3887,75.7796,271.5894)">
      <svg width="32.5" height="51.379" viewBox="-5,32.695,32.5,51.379">
        <defs>
          <linearGradient x1="0" y1="0.5" x2="1" y2="0.5" id="linearGradientSk72voaora">
            <stop offset="0%" stop-color="#01233f"></stop>
            <stop offset="100%" stop-color="#01233f"></stop>
          </linearGradient>
        </defs>
        <g></g>
        <g></g>
        <g></g>
        <g></g>
        <g></g>
        <g></g>
        <g></g>
        <g></g>
        <g>
          <polygon points="22.5,40.872 22.5,74.855 20.853,76.959 0,79.074 0,37.695 20.853,38.971 " fill="url('#linearGradientSk72voaora')" stroke="none" style=""></polygon>
        </g>
      </svg>
    </g>
    <g transform="matrix(3.3887,0,0,3.3887,76.3166,144.288)">
      <svg width="109.78370876047113" height="86.959" viewBox="-4.785,-5,109.78370876047113,86.959">
        <defs>
          <linearGradient x1="0" y1="0.5" x2="1" y2="0.5" id="linearGradientSk72voaorg">
            <stop offset="6.64%" stop-color="#01233f"></stop>
            <stop offset="32.94%" stop-color="#e63b3e" stop-opacity="0.67"></stop>
            <stop offset="48.82%" stop-color="#01233f"></stop>
            <stop offset="100%" stop-color="#01233f"></stop>
          </linearGradient>
        </defs>
        <g></g>
        <g></g>
        <g></g>
        <g></g>
        <g></g>
        <g></g>
        <g></g>
        <g></g>
        <g>
          <path d="M76.19,30.735l11.399,1.777h11.113c0,0,1.166-2.455,1.289-8.19c0.124-5.735-1.289-8.476-1.289-8.476H87.369l-10.547,4.323  H66.165V4.935H52.499v-0.95C51.556,0.117,46.275,0,45.611,0h-0.006L5.625,0.774c-0.215,0-5.143,0.065-5.41,6.198v1.914  c0.267,6.087,5.182,6.166,5.404,6.166l39.993,0.781h0.039c0.605,0,5.905-0.111,6.868-4.206v-0.742h4.115v9.284h-0.932l-8.854,22.598  h-2.109v29.557v1.022v3.613h35.885l3.587-4.636h9.896c0,0,2.955-4.219,3.164-14.46c0.201-10.24-3.164-15.097-3.164-15.097H64.368  V30.735H76.19z" fill="url('#linearGradientSk72voaorg')" stroke="none" style=""></path>
        </g>
      </svg>
    </g>
    <g transform="matrix(3.3887,0,0,3.3887,157.5569,283.144)">
      <svg width="28.229000000000003" height="43.98299999999999" viewBox="19.505,35.872,28.229000000000003,43.98299999999999">
        <defs>
          <linearGradient x1="0" y1="0.5" x2="1" y2="0.5" id="linearGradientSk72voaoro">
            <stop offset="0%" stop-color="#083b66"></stop>
            <stop offset="100%" stop-color="#083b66"></stop>
          </linearGradient>
        </defs>
        <g></g>
        <g></g>
        <g></g>
        <g></g>
        <g></g>
        <g></g>
        <g></g>
        <g></g>
        <g>
          <path d="M38.45,44.029l-4.459-3.157h-9.486v33.983h9.486l4.459-3.594h4.284V44.029H38.45z M25.755,46.126h8.236  c0.137,0,0.273,0.025,0.391,0.091l4.173,2.09c0.437,0.215,0.605,0.742,0.391,1.172c-0.149,0.306-0.462,0.481-0.781,0.481  c-0.13,0-0.267-0.025-0.391-0.091l-3.991-1.999h-8.027c-0.481,0-0.872-0.391-0.872-0.872S25.273,46.126,25.755,46.126z   M25.755,51.224h8.236c0.084,0,0.169,0.006,0.247,0.032l4.173,1.237c0.462,0.137,0.729,0.625,0.592,1.087  c-0.11,0.384-0.462,0.625-0.84,0.625c-0.084,0-0.163-0.007-0.247-0.032l-4.056-1.205h-8.105c-0.481,0-0.872-0.391-0.872-0.872  S25.273,51.224,25.755,51.224z M38.6,66.842l-4.173,2.376c-0.137,0.071-0.287,0.11-0.436,0.11h-8.236  c-0.481,0-0.872-0.391-0.872-0.872s0.391-0.872,0.872-0.872h8.001l3.971-2.266c0.417-0.241,0.957-0.092,1.198,0.325  C39.167,66.066,39.017,66.601,38.6,66.842z M24.883,62.499c0-0.481,0.391-0.872,0.872-0.872h8.236l3.991-0.873  c0.462-0.156,0.938,0.202,1.035,0.671c0.104,0.476-0.195,0.938-0.67,1.035l-4.173,0.892l-8.418,0.02  C25.273,63.371,24.883,62.98,24.883,62.499z M38.164,58.449H25.755c-0.481,0-0.872-0.391-0.872-0.872s0.391-0.872,0.872-0.872  h12.409c0.482,0,0.873,0.391,0.873,0.872S38.646,58.449,38.164,58.449z" fill="url('#linearGradientSk72voaoro')" stroke="none" style=""></path>
        </g>
      </svg>
    </g>
    <g transform="matrix(0.8333,0,0,0.8112,229.9057,0.8138)">
      <svg width="492" height="281" style="overflow: visible;">
        <defs>
          <linearGradient x1="0" y1="0.5" x2="1" y2="0.5" id="linearGradientSk72voaor11">
            <stop offset="0%" stop-color="#01233f"></stop>
            <stop offset="100%" stop-color="#01233f"></stop>
          </linearGradient>
        </defs>
        <g>
          <path d="M 22.46095773043838 106.79490882575999L 22.941564812440788 106.18056622368104Q 29.571477892371377 97.70578878987399  38.59758843060827 104.76701591775546L 38.59758843060827 104.76701591775546L 63.6281113717224 124.34867369472519L 56.46213654648144 133.50867941546645L 30.344699770919938 113.07671680110786Q 29.79336666649011 112.64540275315699  29.088046727461624 112.70305501771679Q 28.382726788433153 112.7607072822766  27.957574369738722 113.30416419950026L 27.957574369738722 113.30416419950026L 25.6592866570862 116.24198202739063Q 25.22797260913532 116.79331513182046  25.34177613954546 117.49177683905015Q 25.461741299212036 118.18236235907366  26.013074403641866 118.61367640702454L 26.013074403641866 118.61367640702454L 52.13051117920337 139.04563902138312L 44.95837472470595 148.21352092933054L 18.840937949144447 127.78155831497196Q 18.289604844714617 127.35024426702108  17.590446534942586 127.40002034437475Q 16.885126595914116 127.45767260893454  16.45381254796324 128.0090057133644L 16.45381254796324 128.0090057133644L 14.155524835310715 130.94682354125473Q 13.730372416616284 131.49028045847842  13.844175947026415 132.1887421657081Q 13.957979477436545 132.8872038729378  14.509312581866375 133.31851792088867L 14.509312581866375 133.31851792088867L 40.626749357427876 153.75048053524722L 33.46077453218692 162.9104862559885L 0.08936933977011563 136.80366309644768L 6.6145347223412045 128.462780845145L 8.323667346073663 129.7998543937927Q 7.586784705389633 125.80802474138287  10.957195908662904 121.49975033962409L 10.957195908662904 121.49975033962409L 11.437802990665304 120.88540773754514Q 15.399730602556915 115.82101936399687  20.096774428379774 116.30874807783206L 20.096774428379774 116.30874807783206Q 18.60377781590627 111.72540201680388  22.46095773043838 106.79490882575999L 22.46095773043838 106.79490882575999ZM 68.09978542991294 69.25619487512587L 66.14449230855872 66.81207359957818L 73.80482129038712 60.683822634567065L 100.27311827178585 93.76925983742838L 92.61278928995745 99.8975108024395L 90.65749616860323 97.45338952689181Q 91.05573458847338 102.25729482996965  86.17530073154907 106.16163412979836L 86.17530073154907 106.16163412979836L 84.74630969824163 107.3048246767882Q 76.34415477016073 114.02653521537329  69.18515822999481 105.07777169531686L 69.18515822999481 105.07777169531686L 55.947886267855594 88.53114874680065Q 48.78888972768969 79.58238522674424  57.19104465577059 72.86067468815915L 57.19104465577059 72.86067468815915L 58.62003568907803 71.71748414116931Q 63.50046954600234 67.8131448413406  68.09978542991294 69.25619487512587L 68.09978542991294 69.25619487512587ZM 85.43661080730216 93.85670271203676L 85.43661080730216 93.85670271203676L 70.46893566747886 75.14707147813172Q 70.03164966589804 74.60046288615618  69.3398000101116 74.4880171046072Q 68.64014166015406 74.38181826593794  68.09353306817853 74.81910426751875L 68.09353306817853 74.81910426751875L 64.3687859485739 77.79889602114801Q 63.82998605076945 78.22993507984911  63.780009760303415 78.93584043497205Q 63.73003346983737 79.641745790095  64.16731947141818 80.18835438207053L 64.16731947141818 80.18835438207053L 79.13499461124148 98.89798561597557Q 79.56603366994257 99.43678551378001  80.26569201990011 99.54298435244928Q 80.96535036985765 99.64918319111855  81.50415026766208 99.21814413241745L 81.50415026766208 99.21814413241745L 85.22889738726673 96.23835237878819Q 85.77550597924225 95.80106637720738  85.8254822697083 95.09516102208443Q 85.86764986600325 94.3955026098412  85.43661080730216 93.85670271203676ZM 108.57618129104563 38.904683422053104L 108.57618129104563 38.904683422053104L 110.55442174388514 37.81190498579566L 116.01347862235711 47.694353973653286L 110.99785127953832 50.4649824868193Q 108.41563475923894 51.89139681733235  109.88556681508967 54.55239282469171L 109.88556681508967 54.55239282469171L 123.86442725411752 79.85811472362559L 113.68436687069999 85.4815718978177L 93.19718884228041 48.393940045246644L 102.46690848633817 43.27335436384558L 104.43971203497995 46.84469111056473Q 104.25206277908667 41.293323012810546  108.57618129104563 38.904683422053104ZM 153.21830741830428 56.54252038905218L 147.52076511320587 23.642433585494757L 158.1599241325295 19.864551194320455L 163.58340417013258 62.90066236019743L 149.09944720582752 68.04380251540992L 126.16705887955901 31.224968127922537L 136.8062178988826 27.447085736748242L 153.21830741830428 56.54252038905218ZM 187.79101722719147 8.149412905012554Q 186.29064125181824 10.284400476995778  183.73566655795997 10.766172532789533Q 181.17086503835608 11.249797558028646  178.9474360346624 9.766098307663675Q 176.72586000041406 8.292225883044306  176.2348230973935 5.68811706045798Q 175.74378619437294 3.0840082378716467  177.27420462550177 0.8924746593789266Q 178.80647602607598-1.2892320933681845  181.37127754567987-1.7728571186072983Q 183.92625223953814-2.254629174401053  186.10852097080405-0.7733448720002443Q 188.28281584576976 0.7196192255915292  188.78126462657175 3.363035351160292Q 189.27971340737375 6.006451476729062  187.79101722719147 8.149412905012554ZM 197.93906425369167 54.73576650290579L 186.5104659115486 56.89076996786016L 178.65943437155576 15.254509283715663L 190.08803271369882 13.099505818761294L 197.93906425369167 54.73576650290579ZM 244.344751759273 19.78833515148427L 244.49204738363892 25.866550679008995L 232.85546370923305 26.14854427565689L 232.67473585433672 18.690733776424253Q 232.65777747653144 17.990939225557916  232.17531776886582 17.482478184297904Q 231.68286099618783 16.974259405577968  230.9830664453215 16.991217783383256L 230.9830664453215 16.991217783383256L 226.21446643441806 17.106777014999274Q 225.5246689485641 17.123493130264485  225.057407480054 17.654969112831665Q 224.59014601154382 18.186445095398856  224.6071043893491 18.886239646265192L 224.6071043893491 18.886239646265192L 225.18756543537003 42.83920741591854Q 225.20428155063524 43.5290049017725  225.69673832331327 44.03722368049243Q 226.18919509599124 44.545442459212374  226.87899258184518 44.52872634394717L 226.87899258184518 44.52872634394717L 231.64759259274862 44.413167112331145Q 232.34738714361495 44.396208734525864  232.8146486121251 43.86473275195867Q 233.27191301562286 43.33349903193157  233.25519690035765 42.6437015460776L 233.25519690035765 42.6437015460776L 233.07422678292124 35.17589398183259L 244.7108104573271 34.89390038518469L 244.85810608169302 40.97211591270941Q 245.13573895261956 52.428752416892536  234.3688999342904 52.689669172553856L 234.3688999342904 52.689669172553856L 224.56177915714935 52.92732872436794Q 213.8049372038326 53.18800321748919  213.52730433290606 41.73136671330607L 213.52730433290606 41.73136671330607L 213.01395001048604 20.547585952080922Q 212.7363171395595 9.09094944789781  223.49315909287625 8.830274954776558L 223.49315909287625 8.830274954776558L 233.3002798700173 8.59261540296248Q 244.06711888834647 8.331698647301154  244.344751759273 19.78833515148427L 244.344751759273 19.78833515148427ZM 296.86543086351253 27.076890980011232L 296.86543086351253 27.076890980011232L 293.0752656920555 47.925170236896534Q 291.02546423547705 59.20036043434371  280.4291467462532 57.273976342951904L 280.4291467462532 57.273976342951904L 270.77734780760073 55.51930336834154Q 260.1908690532786 53.5947079344162  262.24067050985707 42.319517736969026L 262.24067050985707 42.319517736969026L 266.0308356813141 21.471238480083723Q 268.0806371378926 10.196048282636553  278.6671158922147 12.120643716561894L 278.6671158922147 12.120643716561894L 288.3189148308672 13.875316691172259Q 298.91523232009104 15.801700782564062  296.86543086351253 27.076890980011232ZM 281.18833450202317 48.23398552705563L 281.18833450202317 48.23398552705563L 285.8620964619181 22.525371228687867Q 285.9873024845712 21.83665978556282  285.6178921324438 21.240978669745683Q 285.23864304541473 20.64350889646207  284.54993160228963 20.51830287380893L 284.54993160228963 20.51830287380893L 279.85685505413755 19.665113262301137Q 279.1779823459143 19.541695897114476  278.6127128823719 19.967454553616644Q 278.04744341882963 20.39321321011882  277.9222373961765 21.081924653243867L 277.9222373961765 21.081924653243867L 273.2484754362816 46.79053895161163Q 273.12505807109494 47.46941165983489  273.504307158124 48.066881433118496Q 273.8817675876867 48.6741899413039  274.56064029590993 48.79760730649056L 274.56064029590993 48.79760730649056L 279.253716844062 49.650796917998356Q 279.9424282871871 49.776002940651495  280.50948640819587 49.340405549247535Q 281.0649171368365 48.91285823527889  281.18833450202317 48.23398552705563ZM 358.7728005411516 38.37638109110972L 359.4812052072208 38.70282071660179Q 369.2535567545343 43.20601349903063  364.4574053338433 53.61411282358573L 364.4574053338433 53.61411282358573L 351.1570831567441 82.4770619103537L 340.59458794343027 77.60976339179909L 354.47245715024627 47.49348297275485Q 354.76541578850834 46.85773519551327  354.54710087253744 46.18457949475406Q 354.32878595656643 45.51142379399488  353.70212029042835 45.22265027913656L 353.70212029042835 45.22265027913656L 350.314492848841 43.66159924953993Q 349.6787450715994 43.36864061127781  349.0251773216391 43.64002446527756Q 348.3806916827821 43.91559344268103  348.08773304452006 44.551341219922605L 348.08773304452006 44.551341219922605L 334.209863837704 74.66762163896685L 323.63828651328686 69.79613799700853L 337.51615572010286 39.679857577964285Q 337.8091143583649 39.04410980072271  337.5998815534975 38.37513922336727Q 337.3815666375265 37.70198352260809  336.7458188602849 37.409024884345996L 336.7458188602849 37.409024884345996L 333.3581914186976 35.84797385474937Q 332.73152575255943 35.55920033989099  332.0779580025991 35.830584193890715Q 331.4243902526387 36.101968047890495  331.13143161437665 36.73771582513207L 331.13143161437665 36.73771582513207L 317.2535624075606 66.85399624417632L 306.6910671942469 61.986697725621724L 324.42343505591134 23.50579298029892L 334.04139071446616 27.937838664864103L 333.1332189358537 29.908656774313002Q 336.84858433742033 28.273493194471058  341.81649911100817 30.562755696319186L 341.81649911100817 30.562755696319186L 342.52490377707727 30.88919532181123Q 348.3647012165965 33.58022967041879  348.970261742065 38.26354008613907L 348.970261742065 38.26354008613907Q 353.0873989903911 35.756493840365806  358.7728005411516 38.37638109110972L 358.7728005411516 38.37638109110972ZM 368.42975799770454 88.89631660404036Q 370.00608267973365 86.81610014971984  372.56382483785603 86.47076690115657Q 375.1135968179925 86.11939409442463  377.18584309432714 87.68967921828506Q 379.2660595486477 89.26600390031417  379.6174323553796 91.81577588045067Q 379.9688051621116 94.3655478605872  378.3924804800825 96.44576431490772Q 376.8221953562221 98.51801059124234  374.26638381791685 98.87735357596019Q 371.71661183778036 99.22872638269214  369.6363953834598 97.65240170066303Q 367.56414910712516 96.0821165768026  367.2127763003932 93.53234459666608Q 366.85947287384414 90.96856288037499  368.42975799770454 88.89631660404036ZM 435.01242263577984 79.45872567705808L 395.62245810480806 119.50244671105767L 387.33140459536503 111.34675350302487L 426.7213691263368 71.30303246902528L 435.01242263577984 79.45872567705808ZM 450.8156645355499 110.7846445292032Q 448.22777279992897 110.44980671069271  446.6126468601999 108.41231604842847Q 444.9913088976257 106.36698888361701  445.27023851053 103.7085686250715Q 445.5413316208874 101.05636038937118  447.61800479588754 99.41017433541649Q 449.69467797088765 97.76398828146182  452.34660031062486 98.09911199593537Q 454.990686147815 98.44044773325413  456.61202411038926 100.48577489806559Q 458.2271500501183 102.52326556032983  457.93120884838055 105.1441277858415Q 457.62121912125053 107.76336553165117  455.5131999360617 109.43439967698632Q 453.4051807508729 111.10543382232143  450.8156645355499 110.7846445292032ZM 414.2993044569811 141.44123675032765L 407.0747218881159 132.32738428796856L 440.2779831804766 106.00704349322919L 447.5025657493418 115.12089595558828L 414.2993044569811 141.44123675032765ZM 438.8181803780702 161.74951317995988L 470.1774395463217 150.28327733647393L 475.7898437490974 160.07945103157886L 434.40781412063126 173.08132104434065L 426.7671894442218 159.7449889191181L 458.9128621118755 130.62151507508526L 464.5252663146512 140.41768877019018L 438.8181803780702 161.74951317995988ZM 488.54461145170103 188.040316932988L 491.94696429742953 197.24140899388834Q 495.68226910359635 207.34291373353113  484.9335927511073 211.31752776126294L 484.9335927511073 211.31752776126294L 472.0651948840785 216.07596619585985L 465.22927494633035 197.58936838542712L 456.91921626543564 200.66223752030527Q 456.27204465258944 200.90154674187028  455.9507970984897 201.53210205981222Q 455.62954954439 202.16265737775427  455.868858765955 202.80982899060047L 455.868858765955 202.80982899060047L 457.5232138193826 207.28375448810243Q 457.7659912905355 207.94030539968554  458.4201908050735 208.2101627604861Q 459.0709220700236 208.47064082254974  459.7180936828698 208.23133160098473L 459.7180936828698 208.23133160098473L 464.1169847904766 206.6047225442603L 468.1540273107906 217.52222627401358L 465.0588587276131 218.6667486380201Q 454.31018237512404 222.6413626657519  450.5748775689573 212.5398579261091L 450.5748775689573 212.5398579261091L 447.1725247232287 203.33876586520876Q 443.4406881666498 193.24664042430283  454.18936451913885 189.27202639657102L 454.18936451913885 189.27202639657102L 474.0640985426331 181.92280551981386Q 484.8127748951221 177.94819149208206  488.54461145170103 188.040316932988L 488.54461145170103 188.040316932988ZM 479.7202914948431 192.23092277212376L 472.39505918132306 194.9396257002726L 475.1939365987572 202.50871978095205L 482.5191689122772 199.80001685280322Q 483.17571982386033 199.55723938165033  483.500435627548 198.93606336244522Q 483.82168318164776 198.30550804450323  483.57890571049484 197.64895713292012L 483.57890571049484 197.64895713292012L 481.92455065706724 193.17503163541815Q 481.68524143550223 192.52786002257196  481.0310419209642 192.25800266177134Q 480.3768424064262 191.98814530097087  479.7202914948431 192.23092277212376L 479.7202914948431 192.23092277212376Z" data-textpath="marvicom.live" data-text-anchor="middle" data-font-size="100" data-letterspacing="9" data-side="left" data-offset="0.5" data-dx="0" data-dy="0" data-xmlspace="preserve" data-href="" data-font="Squada One" data-font-src="/Content/clientfonts/squadaone.woff" data-font-scale="contain" transform="translate(0,0)" data-x="0" data-y="0" fill="url('#linearGradientSk72voaor11')"></path>
        </g>
      </svg>
    </g>
    <g transform="matrix(0.6866,0,0,0.5851,188.0189,442.2543)">
      <svg width="640.5" height="165" style="overflow: visible;">
        <defs>
          <linearGradient x1="0" y1="0.5" x2="1" y2="0.5" id="linearGradientSk72voaor14">
            <stop offset="0%" stop-color="#01233f"></stop>
            <stop offset="100%" stop-color="#01233f"></stop>
          </linearGradient>
        </defs>
        <g transform="matrix(1,0,0,1,0,78.75)">
          <path d="M-12.100000000000017-64.7L 13.199999999999982-64.7Q 25.599999999999984-64.7  25.599999999999984-51.5L 25.599999999999984-51.5L 25.599999999999984-38.6Q 25.599999999999984-25.4  13.199999999999982-25.4L 13.199999999999982-25.4L 1.8999999999999808-25.4L 1.8999999999999808 0L-12.100000000000017 0L-12.100000000000017-64.7ZM 11.599999999999984-37L 11.599999999999984-37L 11.599999999999984-53.1Q 11.599999999999984-53.9  11.049999999999983-54.5Q 10.499999999999982-55.1  9.699999999999982-55.1L 9.699999999999982-55.1L 1.8999999999999808-55.1L 1.8999999999999808-35L 9.699999999999982-35Q 10.499999999999982-35  11.049999999999983-35.6Q 11.599999999999984-36.2  11.599999999999984-37ZM 54.900000000000006-49.8L 54.900000000000006-49.8L 57.50000000000001-49.8L 57.50000000000001-36.8L 50.900000000000006-36.8Q 47.50000000000001-36.8  47.50000000000001-33.3L 47.50000000000001-33.3L 47.50000000000001 0L 34.10000000000001 0L 34.10000000000001-48.8L 46.30000000000001-48.8L 46.30000000000001-44.1Q 49.20000000000001-49.8  54.900000000000006-49.8ZM 77.9-49.8L 89.2-49.8Q 101.6-49.8  101.6-36.6L 101.6-36.6L 101.6-20.8L 78.9-20.8L 78.9-10.6Q 78.9-9.8  79.45-9.2Q 80-8.6  80.8-8.6L 80.8-8.6L 86.3-8.6Q 87.1-8.6  87.65-9.2Q 88.2-9.8  88.2-10.6L 88.2-10.6L 88.2-16L 101.6-16L 101.6-12.2Q 101.6 1  89.2 1L 89.2 1L 77.9 1Q 65.5 1  65.5-12.2L 65.5-12.2L 65.5-36.6Q 65.5-49.8  77.9-49.8L 77.9-49.8ZM 78.9-38.6L 78.9-29.6L 88.2-29.6L 88.2-38.6Q 88.2-39.4  87.65-40Q 87.1-40.6  86.3-40.6L 86.3-40.6L 80.8-40.6Q 80-40.6  79.45-40Q 78.9-39.4  78.9-38.6L 78.9-38.6ZM 124.39999999999998-38.2L 124.39999999999998 0L 110.99999999999997 0L 110.99999999999997-48.8L 123.19999999999997-48.8L 123.19999999999997-46.3Q 126.29999999999997-49.8  132.59999999999997-49.8L 132.59999999999997-49.8L 134.69999999999996-49.8Q 147.09999999999997-49.8  147.09999999999997-36.6L 147.09999999999997-36.6L 147.09999999999997 0L 133.69999999999996 0L 133.69999999999996-38.2Q 133.69999999999996-39  133.14999999999998-39.6Q 132.59999999999997-40.2  131.79999999999998-40.2L 131.79999999999998-40.2L 126.29999999999997-40.2Q 125.49999999999997-40.2  124.94999999999997-39.6Q 124.39999999999998-39  124.39999999999998-38.2L 124.39999999999998-38.2ZM 170.89999999999998-30.6L 181.2-30.6Q 193.6-30.6  193.6-17.4L 193.6-17.4L 193.6-12.2Q 193.6 1  181.2 1L 181.2 1L 170.1 1Q 157.7 1  157.7-12.2L 157.7-12.2L 157.7-15.3L 170.1-15.3L 170.1-10.9Q 170.1-10.1  170.64999999999998-9.5Q 171.2-8.9  172-8.9L 172-8.9L 180.2-8.9Q 181-8.9  181.54999999999998-9.5Q 182.1-10.1  182.1-10.9L 182.1-10.9L 182.1-16.9Q 182.1-17.7  181.54999999999998-18.3Q 181-18.9  180.2-18.9L 180.2-18.9L 169.89999999999998-18.9Q 157.5-18.9  157.5-32.1L 157.5-32.1L 157.5-36.6Q 157.5-49.8  169.89999999999998-49.8L 169.89999999999998-49.8L 180.39999999999998-49.8Q 192.79999999999998-49.8  192.79999999999998-36.6L 192.79999999999998-36.6L 192.79999999999998-34.8L 180.39999999999998-34.8L 180.39999999999998-37.9Q 180.39999999999998-38.7  179.85-39.3Q 179.29999999999998-39.9  178.5-39.9L 178.5-39.9L 170.89999999999998-39.9Q 170.1-39.9  169.54999999999998-39.3Q 169-38.7  169-37.9L 169-37.9L 169-32.6Q 169-31.8  169.54999999999998-31.2Q 170.1-30.6  170.89999999999998-30.6L 170.89999999999998-30.6ZM 228.3-45.2L 228.3-48.8L 239.6-48.8L 239.6 0L 228.3 0L 228.3-3.6Q 225.2 1  218 1L 218 1L 215.9 1Q 203.5 1  203.5-12.2L 203.5-12.2L 203.5-36.6Q 203.5-49.8  215.9-49.8L 215.9-49.8L 218-49.8Q 225.2-49.8  228.3-45.2L 228.3-45.2ZM 226.2-10.6L 226.2-10.6L 226.2-38.2Q 226.2-39  225.65-39.6Q 225.1-40.2  224.3-40.2L 224.3-40.2L 218.8-40.2Q 218-40.2  217.45-39.6Q 216.9-39  216.9-38.2L 216.9-38.2L 216.9-10.6Q 216.9-9.8  217.45-9.2Q 218-8.6  218.8-8.6L 218.8-8.6L 224.3-8.6Q 225.1-8.6  225.65-9.2Q 226.2-9.8  226.2-10.6ZM 280.20000000000005-52.8L 269.70000000000005-52.8L 269.70000000000005-64.7L 304.70000000000005-64.7L 304.70000000000005-52.8L 294.20000000000005-52.8L 294.20000000000005 0L 280.20000000000005 0L 280.20000000000005-52.8ZM 314.00000000000006-6.2Q 314.00000000000006-9.2  316.1000000000001-11.3Q 318.2000000000001-13.4  321.2000000000001-13.4Q 324.2000000000001-13.4  326.30000000000007-11.3Q 328.4000000000001-9.2  328.4000000000001-6.2Q 328.4000000000001-3.2  326.30000000000007-1.1Q 324.2000000000001 1  321.2000000000001 1Q 318.2000000000001 1  316.1000000000001-1.1Q 314.00000000000006-3.2  314.00000000000006-6.2ZM 358.7000000000001-17.5L 366.60000000000014-64.7L 380.10000000000014-64.7L 366.7000000000001 0L 350.60000000000014 0L 337.2000000000001-64.7L 350.8000000000001-64.7L 358.7000000000001-17.5ZM 411.20000000000016-64.7L 436.90000000000015-64.7Q 449.3000000000002-64.7  449.3000000000002-51.5L 449.3000000000002-51.5L 449.3000000000002-13.2Q 449.3000000000002 0  436.90000000000015 0L 436.90000000000015 0L 411.20000000000016 0L 411.20000000000016-64.7ZM 435.3000000000002-11.6L 435.3000000000002-11.6L 435.3000000000002-53.2Q 435.3000000000002-54  434.75000000000017-54.6Q 434.20000000000016-55.2  433.40000000000015-55.2L 433.40000000000015-55.2L 425.20000000000016-55.2L 425.20000000000016-9.6L 433.40000000000015-9.6Q 434.20000000000016-9.6  434.75000000000017-10.2Q 435.3000000000002-10.8  435.3000000000002-11.6ZM 474.85000000000014-54.9Q 472.70000000000016-52.8  469.70000000000016-52.8Q 466.70000000000016-52.8  464.50000000000017-54.95Q 462.3000000000002-57.1  462.3000000000002-60.15Q 462.3000000000002-63.2  464.50000000000017-65.35Q 466.70000000000016-67.5  469.70000000000016-67.5Q 472.70000000000016-67.5  474.85000000000014-65.35Q 477.00000000000017-63.2  477.00000000000017-60.1Q 477.00000000000017-57  474.85000000000014-54.9ZM 476.40000000000015 0L 463.00000000000017 0L 463.00000000000017-48.8L 476.40000000000015-48.8L 476.40000000000015 0ZM 512.6000000000001-48.8L 523.9000000000001-48.8L 523.9000000000001 3.7Q 523.9000000000001 16.9  511.5000000000001 16.9L 511.5000000000001 16.9L 501.5000000000001 16.9Q 489.10000000000014 16.9  489.10000000000014 3.7L 489.10000000000014 3.7L 489.10000000000014 2.1L 501.2000000000001 2.1L 501.2000000000001 5.3Q 501.2000000000001 6.1  501.7500000000001 6.7Q 502.3000000000001 7.3  503.10000000000014 7.3L 503.10000000000014 7.3L 508.60000000000014 7.3Q 509.40000000000015 7.3  509.9500000000001 6.7Q 510.5000000000001 6.1  510.5000000000001 5.3L 510.5000000000001 5.3L 510.5000000000001-4.7Q 507.40000000000015-2.3  502.3000000000001-2.3L 502.3000000000001-2.3L 500.2000000000001-2.3Q 487.8000000000001-2.3  487.8000000000001-15.5L 487.8000000000001-15.5L 487.8000000000001-36.6Q 487.8000000000001-49.8  500.2000000000001-49.8L 500.2000000000001-49.8L 502.3000000000001-49.8Q 509.5000000000001-49.8  512.6000000000001-45.2L 512.6000000000001-45.2L 512.6000000000001-48.8ZM 510.5000000000001-13.9L 510.5000000000001-13.9L 510.5000000000001-38.2Q 510.5000000000001-39  509.9500000000001-39.6Q 509.40000000000015-40.2  508.60000000000014-40.2L 508.60000000000014-40.2L 503.10000000000014-40.2Q 502.3000000000001-40.2  501.7500000000001-39.6Q 501.2000000000001-39  501.2000000000001-38.2L 501.2000000000001-38.2L 501.2000000000001-13.9Q 501.2000000000001-13.1  501.7500000000001-12.5Q 502.3000000000001-11.9  503.10000000000014-11.9L 503.10000000000014-11.9L 508.60000000000014-11.9Q 509.40000000000015-11.9  509.9500000000001-12.5Q 510.5000000000001-13.1  510.5000000000001-13.9ZM 548.6500000000002-54.9Q 546.5000000000002-52.8  543.5000000000002-52.8Q 540.5000000000002-52.8  538.3000000000002-54.95Q 536.1000000000003-57.1  536.1000000000003-60.15Q 536.1000000000003-63.2  538.3000000000002-65.35Q 540.5000000000002-67.5  543.5000000000002-67.5Q 546.5000000000002-67.5  548.6500000000002-65.35Q 550.8000000000002-63.2  550.8000000000002-60.1Q 550.8000000000002-57  548.6500000000002-54.9ZM 550.2000000000003 0L 536.8000000000002 0L 536.8000000000002-48.8L 550.2000000000003-48.8L 550.2000000000003 0ZM 579.4000000000001-7.7L 579.4000000000001-7.7L 583.4000000000001-7.7L 583.4000000000001 1L 574.0000000000001 1Q 561.6000000000001 1  561.6000000000001-12.2L 561.6000000000001-12.2L 561.6000000000001-59.4L 575.0000000000001-59.4L 575.0000000000001-48.8L 583.4000000000001-48.8L 583.4000000000001-39.1L 575.0000000000001-39.1L 575.0000000000001-12.5Q 575.0000000000001-9.7  576.1000000000001-8.7Q 577.2000000000002-7.7  579.4000000000001-7.7ZM 617.2-45.2L 617.2-48.8L 628.5000000000001-48.8L 628.5000000000001 0L 617.2 0L 617.2-3.6Q 614.1000000000001 1  606.9000000000001 1L 606.9000000000001 1L 604.8000000000001 1Q 592.4000000000001 1  592.4000000000001-12.2L 592.4000000000001-12.2L 592.4000000000001-36.6Q 592.4000000000001-49.8  604.8000000000001-49.8L 604.8000000000001-49.8L 606.9000000000001-49.8Q 614.1000000000001-49.8  617.2-45.2L 617.2-45.2ZM 615.1000000000001-10.6L 615.1000000000001-10.6L 615.1000000000001-38.2Q 615.1000000000001-39  614.5500000000001-39.6Q 614.0000000000001-40.2  613.2-40.2L 613.2-40.2L 607.7-40.2Q 606.9000000000001-40.2  606.3500000000001-39.6Q 605.8000000000001-39  605.8000000000001-38.2L 605.8000000000001-38.2L 605.8000000000001-10.6Q 605.8000000000001-9.8  606.3500000000001-9.2Q 606.9000000000001-8.6  607.7-8.6L 607.7-8.6L 613.2-8.6Q 614.0000000000001-8.6  614.5500000000001-9.2Q 615.1000000000001-9.8  615.1000000000001-10.6ZM 653-64.7L 653 0L 639.6 0L 639.6-64.7L 653-64.7Z" data-textpath="Prensa T.V Digital" data-text-anchor="middle" data-font-size="100" data-letterspacing="2" data-side="left" data-offset="0.5" data-dx="0" data-dy="0" data-xmlspace="preserve" data-href="" data-font="Squada One" data-font-src="/Content/clientfonts/squadaone.woff" data-font-scale="contain" transform="translate(0,0)" data-x="0" data-y="0" fill="url('#linearGradientSk72voaor14')"></path>
        </g>
      </svg>
    </g>
  </g>
</svg>